<?xml version="1.0" encoding="iso-8859-1"?>
<!-- Uploaded to: SVG Repo, www.svgrepo.com, Generator: SVG Repo Mixer Tools -->
<svg version="1.1" id="Layer_1" xmlns="http://www.w3.org/2000/svg" xmlns:xlink="http://www.w3.org/1999/xlink" 
	 viewBox="0 0 512 512" xml:space="preserve">
<path style="fill:#FFFFFF;" d="M80,345.066c-41.92,0-75.928-33.952-76-75.872v-16c0.12-38.64,29.336-70.984,67.768-75.016
	l4.112-0.456l-0.584-4.088c-0.824-5.392-1.256-10.832-1.288-16.28C74.112,93.858,125.672,42.466,189.176,42.57
	c47.28,0.08,89.688,29.088,106.896,73.12l1.536,3.928l3.848-1.744c9.12-3.568,18.84-5.336,28.632-5.216
	c9.672,0,19.272,1.656,28.384,4.896c38.216,13.528,38.912,54.064,38.92,55.784v4H432c41.92,0,75.928,33.952,76,75.872v16
	c-0.08,41.92-34.08,75.856-76,75.856L80,345.066L80,345.066z"/>
<path style="fill:#AAC1CE;" d="M188.992,46.586c45.752-0.176,86.872,27.912,103.352,70.592l3.088,7.808l7.664-3.44
	c8.608-3.328,17.768-4.976,26.992-4.864c9.216,0.008,18.36,1.584,27.048,4.672c35.472,12.552,36.24,50.4,36.256,52v8H432
	c39.712,0,71.928,32.16,72,71.872v16c-0.072,39.712-32.288,71.872-72,71.872H80c-39.712,0-71.928-32.16-72-71.872v-16
	c0.12-36.6,27.808-67.232,64.208-71.04l8.208-0.904l-1.16-8.176C70.12,113.058,111.4,56.97,171.448,47.834
	C177.256,46.954,183.12,46.538,188.992,46.586 M188.992,38.586C123.832,38.034,70.56,90.402,70,155.554
	c-0.056,6.248,0.392,12.496,1.328,18.68C30.928,178.602,0.24,212.594,0,253.226v16c0.16,44.096,35.904,79.776,80,79.872h352
	c44.096-0.096,79.832-35.776,80-79.872v-16c-0.16-44.096-35.904-79.776-80-79.872h-30.608c0,0-0.128-44.864-41.6-59.536
	c-9.544-3.392-19.592-5.128-29.72-5.128c-10.368-0.136-20.664,1.768-30.296,5.6c-17.832-45.632-61.808-75.672-110.8-75.68
	L188.992,38.586z"/>
<path style="fill:#415E72;" d="M423.2,454.97V228.738c-0.016-5.424-4.416-9.824-9.84-9.84H98.688
	c-5.424,0.016-9.824,4.416-9.84,9.84V454.97H423.2z"/>
<rect x="101.144" y="231.202" style="fill:#25B6D2;" width="309.776" height="211.48"/>
<rect x="59.24" y="454.97" style="fill:#CFDCE5;" width="393.44" height="6.144"/>
<polygon style="fill:#AAC1CE;" points="433.088,473.418 78.984,473.418 59.312,461.122 452.76,461.122 "/>
<g style="opacity:0.7;">
	<path style="fill:#FFFFFF;" d="M289.04,454.97h-66.152c0.704,3.608,3.888,6.192,7.56,6.144h51.032
		C285.16,461.178,288.344,458.586,289.04,454.97z"/>
</g>
<g>
	<rect x="151.176" y="293.01" style="fill:#FFFFFF;" width="209.68" height="8"/>
	<rect x="151.176" y="333.85" style="fill:#FFFFFF;" width="209.68" height="8"/>
	<rect x="151.176" y="373.89" style="fill:#FFFFFF;" width="209.68" height="8"/>
</g>
</svg>