<?xml version="1.0" standalone="no"?>
<svg xmlns:xlink="http://www.w3.org/1999/xlink" id="wave" style="transform:rotate(180deg); transition: 0.3s" viewBox="0 0 1440 100" version="1.1" xmlns="http://www.w3.org/2000/svg"><defs><linearGradient id="sw-gradient-0" x1="0" x2="0" y1="1" y2="0"><stop stop-color="rgba(245, 245, 245, 1)" offset="0%"/><stop stop-color="rgba(245, 245, 245, 1)" offset="100%"/></linearGradient></defs><path style="transform:translate(0, 0px); opacity:1" fill="url(#sw-gradient-0)" d="M0,70L10,73.3C20,77,40,83,60,75C80,67,100,43,120,41.7C140,40,160,60,180,65C200,70,220,60,240,61.7C260,63,280,77,300,68.3C320,60,340,30,360,23.3C380,17,400,33,420,41.7C440,50,460,50,480,56.7C500,63,520,77,540,68.3C560,60,580,30,600,28.3C620,27,640,53,660,63.3C680,73,700,67,720,53.3C740,40,760,20,780,18.3C800,17,820,33,840,43.3C860,53,880,57,900,56.7C920,57,940,53,960,46.7C980,40,1000,30,1020,31.7C1040,33,1060,47,1080,48.3C1100,50,1120,40,1140,41.7C1160,43,1180,57,1200,66.7C1220,77,1240,83,1260,76.7C1280,70,1300,50,1320,38.3C1340,27,1360,23,1380,30C1400,37,1420,53,1430,61.7L1440,70L1440,100L1430,100C1420,100,1400,100,1380,100C1360,100,1340,100,1320,100C1300,100,1280,100,1260,100C1240,100,1220,100,1200,100C1180,100,1160,100,1140,100C1120,100,1100,100,1080,100C1060,100,1040,100,1020,100C1000,100,980,100,960,100C940,100,920,100,900,100C880,100,860,100,840,100C820,100,800,100,780,100C760,100,740,100,720,100C700,100,680,100,660,100C640,100,620,100,600,100C580,100,560,100,540,100C520,100,500,100,480,100C460,100,440,100,420,100C400,100,380,100,360,100C340,100,320,100,300,100C280,100,260,100,240,100C220,100,200,100,180,100C160,100,140,100,120,100C100,100,80,100,60,100C40,100,20,100,10,100L0,100Z"/></svg>